<svg width="560" height="563" viewBox="0 0 560 563" fill="none" xmlns="http://www.w3.org/2000/svg">
<path d="M139.995 562.821H419.995C457.115 562.78 492.698 548.019 518.948 521.775C545.194 495.524 559.954 459.941 559.995 422.821V268.101C560.073 226.096 541.214 186.295 508.662 159.741L339.102 21.0213C322.404 7.428 301.528 0 279.998 0C258.467 0 237.591 7.42707 220.894 21.0213L51.3336 159.741C18.7816 186.293 -0.0784216 226.096 0.000245119 268.101V422.821C0.0419118 459.941 14.8029 495.524 41.0469 521.775C67.2976 548.02 102.88 562.78 140 562.821H139.995ZM361.662 516.155H198.328V358.661C198.328 352.474 200.787 346.536 205.162 342.161C209.537 337.786 215.474 335.328 221.662 335.328H338.328C344.516 335.328 350.453 337.786 354.828 342.161C359.203 346.536 361.662 352.474 361.662 358.661V516.155ZM46.6616 268.101C46.6095 240.096 59.1876 213.56 80.8909 195.861L250.438 57.128C258.787 50.3363 269.224 46.628 279.99 46.628C290.755 46.628 301.192 50.3363 309.542 57.128L479.088 195.861C500.791 213.559 513.37 240.096 513.318 268.101V422.821C513.292 447.567 503.448 471.291 485.948 488.785C468.454 506.285 444.73 516.129 419.984 516.155H408.318V358.661C408.297 340.104 400.917 322.307 387.796 309.183C374.671 296.063 356.875 288.683 338.318 288.661H221.651C203.094 288.682 185.296 296.062 172.172 309.183C159.053 322.308 151.672 340.104 151.651 358.661V516.155H139.984C115.239 516.129 91.5149 506.285 74.0202 488.785C56.5202 471.291 46.6763 447.567 46.6509 422.821L46.6616 268.101Z" fill="white"/>
</svg>
