<svg width="646" height="643" viewBox="0 0 646 643" fill="none" xmlns="http://www.w3.org/2000/svg">
<path d="M0.00401815 89.1507C0.00401815 112.796 9.39469 135.473 26.1134 152.192C42.832 168.911 65.5093 178.307 89.1547 178.307C112.8 178.307 135.477 168.911 152.196 152.192C168.915 135.473 178.305 112.796 178.305 89.1507C178.305 65.5107 168.915 42.8333 152.196 26.1147C135.477 9.396 112.8 0 89.1547 0C65.5453 0.119791 42.936 9.54694 26.2427 26.2453C9.54934 42.9387 0.117352 65.548 0.00268555 89.152L0.00401815 89.1507ZM89.1547 44.8013C100.915 44.8013 112.196 49.4732 120.515 57.7909C128.832 66.1087 133.509 77.3896 133.509 89.1509C133.509 100.917 128.832 112.198 120.515 120.515C112.197 128.833 100.916 133.505 89.1547 133.505C77.3943 133.505 66.1134 128.833 57.7947 120.515C49.477 112.197 44.7999 100.916 44.7999 89.1509C44.8207 77.3957 49.5029 66.1243 57.8155 57.8123C66.128 49.5003 77.3995 44.8227 89.1541 44.8019L89.1547 44.8013Z" fill="white"/>
<path d="M623.471 67.2067H248.871C240.866 67.2067 233.469 71.4723 229.469 78.4045C225.469 85.3368 225.469 93.8739 229.469 100.806C233.469 107.733 240.865 112.004 248.871 112.004H623.471C631.476 112.004 638.872 107.733 642.872 100.806C646.872 93.8736 646.872 85.3365 642.872 78.4045C638.872 71.4725 631.476 67.2067 623.471 67.2067Z" fill="white"/>
<path d="M89.1507 410.217C112.796 410.217 135.473 400.827 152.192 384.108C168.911 367.389 178.301 344.712 178.301 321.067C178.301 297.421 168.911 274.744 152.192 258.025C135.473 241.307 112.796 231.916 89.1507 231.916C65.5053 231.916 42.828 241.307 26.1093 258.025C9.39067 274.744 0 297.421 0 321.067C0.114584 344.676 9.54693 367.28 26.24 383.979C42.9333 400.672 65.5427 410.104 89.152 410.219L89.1507 410.217ZM89.1507 276.711C100.911 276.711 112.192 281.388 120.511 289.705C128.828 298.023 133.505 309.304 133.505 321.065C133.505 332.827 128.828 344.107 120.511 352.426C112.193 360.743 100.912 365.42 89.1507 365.42C77.3903 365.42 66.1093 360.743 57.7907 352.426C49.472 344.108 44.7959 332.827 44.7959 321.065C44.8167 309.31 49.4989 298.039 57.8115 289.727C66.124 281.415 77.3955 276.732 89.1501 276.711L89.1507 276.711Z" fill="white"/>
<path d="M623.471 299.124H248.871C240.866 299.124 233.469 303.395 229.469 310.327C225.469 317.254 225.469 325.796 229.469 332.723C233.469 339.655 240.865 343.926 248.871 343.926H623.471C631.476 343.926 638.872 339.655 642.872 332.723C646.872 325.796 646.872 317.254 642.872 310.327C638.872 303.395 631.476 299.124 623.471 299.124Z" fill="white"/>
<path d="M89.1507 642.137C112.796 642.137 135.473 632.741 152.192 616.023C168.911 599.304 178.301 576.627 178.301 552.987C178.301 529.341 168.911 506.664 152.192 489.945C135.473 473.227 112.796 463.831 89.1507 463.831C65.5053 463.831 42.828 473.227 26.1093 489.945C9.39067 506.664 0 529.341 0 552.987C0.114584 576.591 9.54693 599.2 26.24 615.893C42.9333 632.591 65.5427 642.019 89.152 642.139L89.1507 642.137ZM89.1507 508.631C100.911 508.631 112.192 513.303 120.511 521.62C128.828 529.938 133.505 541.219 133.505 552.984C133.505 564.745 128.828 576.026 120.511 584.344C112.193 592.662 100.912 597.334 89.1507 597.334C77.3903 597.334 66.1093 592.662 57.7907 584.344C49.472 576.027 44.7959 564.746 44.7959 552.984C44.8167 541.224 49.4989 529.958 57.8115 521.64C66.124 513.328 77.3955 508.651 89.1501 508.63L89.1507 508.631Z" fill="white"/>
<path d="M623.471 531.031H248.871C240.866 531.031 233.469 535.302 229.469 542.229C225.469 549.161 225.469 557.698 229.469 564.63C233.469 571.562 240.865 575.828 248.871 575.828H623.471C631.476 575.828 638.872 571.562 642.872 564.63C646.872 557.698 646.872 549.161 642.872 542.229C638.872 535.302 631.476 531.031 623.471 531.031Z" fill="white"/>
</svg>
