<svg width="560" height="560" viewBox="0 0 560 560" fill="none" xmlns="http://www.w3.org/2000/svg">
<path d="M163.333 560H396.667C439.969 559.953 481.489 542.729 512.109 512.109C542.729 481.489 559.953 439.969 560 396.667V163.333C559.953 120.031 542.729 78.5107 512.109 47.8907C481.489 17.2707 439.969 0.0466667 396.667 0H163.333C120.031 0.0468747 78.5107 17.2707 47.8907 47.8907C17.2707 78.5107 0.0466667 120.031 0 163.333V396.667C0.0468747 439.969 17.2707 481.489 47.8907 512.109C78.5107 542.729 120.031 559.953 163.333 560ZM46.6667 163.333C46.7031 132.401 59.0052 102.745 80.8747 80.8747C102.744 59.004 132.401 46.7027 163.333 46.6667H396.667C427.599 46.7031 457.255 59.0052 479.125 80.8747C500.996 102.744 513.297 132.401 513.333 163.333V396.667C513.297 427.599 500.995 457.255 479.125 479.125C457.256 500.996 427.599 513.297 396.667 513.333H163.333C132.401 513.297 102.745 500.995 80.8747 479.125C59.004 457.256 46.7027 427.599 46.6667 396.667V163.333Z" fill="white"/>
<path d="M175 303.333H256.667V385C256.667 393.339 261.115 401.041 268.333 405.208C275.552 409.375 284.448 409.375 291.667 405.208C298.885 401.041 303.333 393.338 303.333 385V303.333H385C393.339 303.333 401.041 298.885 405.208 291.667C409.375 284.448 409.375 275.552 405.208 268.333C401.041 261.115 393.338 256.667 385 256.667H303.333V175C303.333 166.661 298.885 158.959 291.667 154.792C284.448 150.625 275.552 150.625 268.333 154.792C261.115 158.959 256.667 166.662 256.667 175V256.667H175C166.661 256.667 158.959 261.115 154.792 268.333C150.625 275.552 150.625 284.448 154.792 291.667C158.959 298.885 166.662 303.333 175 303.333Z" fill="white"/>
</svg>
