<svg width="495" height="572" viewBox="0 0 495 572" fill="none" xmlns="http://www.w3.org/2000/svg">
<path d="M247.443 240.176C313.661 240.176 367.525 186.312 367.525 120.093C367.525 53.8747 313.661 0 247.443 0C181.224 0 127.36 53.8747 127.36 120.083C127.36 186.291 181.224 240.176 247.443 240.176ZM247.443 35.736C293.959 35.736 331.803 73.58 331.803 120.096C331.803 166.612 293.959 204.445 247.443 204.445C200.927 204.445 163.083 166.601 163.083 120.096C163.083 73.58 200.927 35.736 247.443 35.736ZM490.443 436.976C453.64 334.908 355.989 266.336 247.443 266.336C138.896 266.336 41.256 334.909 4.44268 436.976C-8.96932 474.173 8.94788 515.621 45.2293 531.336C106.213 557.757 176.141 571.727 247.443 571.727C318.744 571.727 388.669 557.763 449.656 531.336C485.937 515.628 503.859 474.185 490.443 436.987V436.976ZM435.453 498.555C378.917 523.049 313.901 535.992 247.453 535.992C181.005 535.992 115.984 523.049 59.4533 498.555C40.4373 490.32 31.0414 468.591 38.0734 449.101C69.792 361.148 153.933 302.061 247.46 302.061C340.991 302.061 425.14 361.144 456.847 449.088C463.878 468.577 454.493 490.301 435.472 498.547L435.453 498.555Z" fill="white"/>
</svg>
